# xmcd
#
# Track frame offsets:
# 150
# 17747
# 39230
# 64883
# 83654
# 101838
# 119021
# 130400
# 147693
# 176666
#
# Disc length: 2592 seconds
#
#
# Revision: 0
# Processed by: cddbd v1.5.1PL0 Copyright (c) Steve Scherf et al.
# Submitted via: FreeRIP 2.90 
#
DISCID=910a1e0a
DTITLE=Honeybrowne - Honeybrowne
DYEAR=1900
DGENRE=Texas Country
TTITLE0=Fall Into You
TTITLE1=Deeper Shade of Blue
TTITLE2=Texas Angel
TTITLE3=First to Know
TTITLE4=I Miss Home
TTITLE5=Lullaby
TTITLE6=Good for Nuthin'
TTITLE7=Breakin' Away
TTITLE8=Julie at the Bar
TTITLE9=Easyville
EXTD=
EXTT0=
EXTT1=
EXTT2=
EXTT3=
EXTT4=
EXTT5=
EXTT6=
EXTT7=
EXTT8=
EXTT9=
PLAYORDER=
